<?xml version="1.0" encoding="UTF-8"?>
<svg id="katman_2" data-name="katman 2" xmlns="http://www.w3.org/2000/svg" viewBox="0 0 609.24 496.32">
  <defs>
    <style>
      .cls-1 {
        fill: #fff;
      }

      .cls-2 {
        fill: #fefefe;
      }

      .cls-3 {
        fill: #fba259;
      }
    </style>
  </defs>
  <g id="katman_1" data-name="katman 1">
    <path class="cls-3" d="M491.99,349.33l.71-178.61-80.05,61.07c-1.69,1.29-2.57,2.29-4.41,2.32s-2.74-.92-4.4-2.26l-57.96-46.65c-7.45-10.59-2.87-21.31,6.62-28.55l92.86-70.84,102.04-77.72c12.08-9.2,30.03-7.94,42.61-1.45,12.77,6.59,19.28,18.68,19.23,32.65l-.35,99-.79,322.34c-.05,18.38-11.78,35.31-30.99,35.42l-51.37.28c-18.41.1-32.89-13.16-34.26-31.61l.51-115.37Z"/>
    <path class="cls-2" d="M124.01,188.74l-1.34,204.2-98.42,72c-6.73,4.92-15.93.58-19.8-5.39C.29,453.14-.01,447.17,0,439.62l.32-156.69L.45,43.42C.46,25.01,9.46,9.42,26.97,3.21c20.47-7.26,40.77-1.74,57.39,11.8l106.23,86.56,206.37,168.83-25.47,19.05-116.32,10.2-131.16-110.9Z"/>
    <g>
      <polygon class="cls-1" points="278 491.52 202.7 491.6 257.51 419.57 323.47 418.96 278 491.52"/>
      <polygon class="cls-1" points="186.69 491.54 111.17 491.34 179.42 420.79 243.77 419.56 197.49 477.25 186.69 491.54"/>
      <polygon class="cls-1" points="94 491.56 22.49 491.51 107.02 421.94 164.79 420.98 94 491.56"/>
      <polygon class="cls-1" points="331.26 406.95 266.03 408.37 307.16 354.91 366.74 351.74 331.26 406.95"/>
      <polygon class="cls-1" points="252.34 408.54 190.09 409.67 239.33 358.37 294.39 355.58 252.34 408.54"/>
      <polygon class="cls-1" points="176.21 410.08 120.82 411.23 176.43 362.13 225.26 359.71 176.21 410.08"/>
      <polygon class="cls-1" points="374.26 340.78 315.45 344.54 349.46 301.44 402.9 296.98 374.26 340.78"/>
      <polygon class="cls-1" points="303.01 345.16 249.1 348.19 288.61 306.67 337.09 302.71 303.01 345.16"/>
      <polygon class="cls-1" points="235.95 349.31 188 352.09 232.88 311.73 275.29 308.37 235.95 349.31"/>
    </g>
  </g>
</svg>